<?xml version="1.0" encoding="utf-8" ?><svg xmlns="http://www.w3.org/2000/svg" xmlns:xlink="http://www.w3.org/1999/xlink" width="2040" height="2040" viewBox="0 0 2040 2040"><path fill="white" d="M0 0L2040 0L2040 2040L0 2040L0 0Z"/><path fill="#3F5F74" d="M561.466 1358.52C555.239 1350.46 547.889 1339.15 542.589 1330.39C469.719 1210.02 440.655 1062.55 472.97 925.16C508.423 780.714 599.365 656.055 726.092 578.196C840.916 507.716 976.671 479.35 1110.11 497.955C1242.33 516.262 1364.58 580.62 1453.26 680.551C1465.97 694.872 1479.31 710.656 1489.34 726.927C1498.51 734.604 1530.53 791.616 1537.07 804.927C1612.34 958.605 1608.74 1149.43 1498.84 1286.05C1482.66 1306.17 1463.44 1326.86 1443.02 1343.28C1374.31 1398.55 1271.35 1438.8 1184 1409.39C1125.41 1389.67 1077.29 1335.98 1008.57 1351.94C991.404 1355.42 979.087 1357.67 964.372 1368.59C956.276 1377.61 944.378 1384.11 932.506 1386.18C866.921 1447.43 856.943 1522.46 895.808 1602.36C890.675 1600.44 885.03 1597.92 879.689 1597.39C864.617 1593.7 845.072 1584.9 830.645 1578.73C736.576 1539.37 653.983 1476.88 590.542 1397.04C582.47 1386.9 568.028 1369.35 561.466 1358.52Z"/><path fill="white" d="M708.73 1056.57C710.105 1054.11 712.348 1047.63 713.38 1044.57C721.253 1021.23 733.726 1002.08 747.946 982.014C834.34 859.199 965.81 775.546 1113.66 749.316C1177.55 738.538 1244.15 740.003 1298.72 778.708C1381.34 857.178 1310.88 966.918 1246.91 1031.57C1146.66 1132.87 1000.21 1207.82 856.336 1214.79C813.543 1216.39 762.346 1206.53 730.749 1175.83C711.252 1157.22 700.25 1131.42 700.316 1104.46C700.231 1090.43 704.23 1070.17 708.73 1056.57Z"/><path fill="#82A6A5" d="M561.466 1358.52C565.858 1355.76 558.171 1346.83 556.605 1342.86C555.19 1339.27 552.034 1335.07 550.371 1331.41C480.054 1176.64 508.634 997.194 620.105 869.53C717.652 759.754 854.341 692.587 1000.84 682.441C1080.26 677.083 1160.63 689.405 1231.87 725.916C1247.97 734.168 1297.58 760.821 1298.72 778.708C1244.15 740.003 1177.55 738.538 1113.66 749.316C965.81 775.546 834.34 859.199 747.946 982.014C733.726 1002.08 721.253 1021.23 713.38 1044.57C712.348 1047.63 710.105 1054.11 708.73 1056.57L706.759 1056.01C702.017 1060.52 696.183 1082.8 694.111 1089.47C680.753 1132.48 670.215 1178.38 669.265 1223.54C666.236 1367.59 746.925 1507.28 867.042 1584.75C873.433 1588.87 875.997 1590.47 879.689 1597.39C864.617 1593.7 845.072 1584.9 830.645 1578.73C736.576 1539.37 653.983 1476.88 590.542 1397.04C582.47 1386.9 568.028 1369.35 561.466 1358.52Z"/><path fill="#82A6A5" d="M1489.34 726.927C1498.51 734.604 1530.53 791.616 1537.07 804.927C1612.34 958.605 1608.74 1149.43 1498.84 1286.05C1482.66 1306.17 1463.44 1326.86 1443.02 1343.28C1374.31 1398.55 1271.35 1438.8 1184 1409.39C1125.41 1389.67 1077.29 1335.98 1008.57 1351.94C991.404 1355.42 979.087 1357.67 964.372 1368.59L961.063 1363.97C969.79 1353.36 1016.77 1329.05 1031 1322.58C1093.89 1293.98 1159.56 1273.53 1223.03 1245.9C1330.35 1199.2 1434.2 1131.82 1488.89 1024.46C1524.36 954.845 1532.57 873.19 1514.24 797.196C1507.79 770.445 1497.53 752.832 1489.93 728.827L1489.34 726.927Z"/><path fill="#D9E9EF" d="M961.063 1363.97L964.372 1368.59C956.276 1377.61 944.378 1384.11 932.506 1386.18C941.581 1378.06 951.267 1371.19 961.063 1363.97Z"/><path fill="#A39B8F" d="M1022.88 1418.33C1074.55 1413.4 1120.4 1451.34 1125.23 1503.01C1130.06 1554.68 1092.03 1600.46 1040.35 1605.19C988.812 1609.91 943.185 1572.01 938.368 1520.48C933.551 1468.95 971.363 1423.25 1022.88 1418.33Z"/></svg>